<mxfile host="app.diagrams.net" modified="2022-06-25T12:38:30.338Z" agent="5.0 (Windows NT 10.0; Win64; x64) AppleWebKit/537.36 (KHTML, like Gecko) Chrome/102.0.0.0 Safari/537.36" etag="bUWWPYBpAti32iXZit71" version="20.0.3" type="github">
  <diagram id="YyVtHMCVjJAJdgX77xl3" name="Page-1">
    <mxGraphModel dx="1422" dy="794" grid="1" gridSize="10" guides="1" tooltips="1" connect="1" arrows="1" fold="1" page="1" pageScale="1" pageWidth="827" pageHeight="1169" math="0" shadow="0">
      <root>
        <mxCell id="0" />
        <mxCell id="1" parent="0" />
        <mxCell id="Dba_KshNGZGqnBGReFBX-1" value="SUNAT" style="points=[[0,0],[0.25,0],[0.5,0],[0.75,0],[1,0],[1,0.25],[1,0.5],[1,0.75],[1,1],[0.75,1],[0.5,1],[0.25,1],[0,1],[0,0.75],[0,0.5],[0,0.25]];outlineConnect=0;gradientColor=none;html=1;whiteSpace=wrap;fontSize=12;fontStyle=0;container=1;pointerEvents=0;collapsible=0;recursiveResize=0;shape=mxgraph.aws4.group;grIcon=mxgraph.aws4.group_corporate_data_center;strokeColor=#5A6C86;fillColor=none;verticalAlign=top;align=left;spacingLeft=30;fontColor=#5A6C86;dashed=0;" parent="1" vertex="1">
          <mxGeometry x="190" y="70" width="880" height="680" as="geometry" />
        </mxCell>
        <mxCell id="Dba_KshNGZGqnBGReFBX-11" style="edgeStyle=orthogonalEdgeStyle;rounded=0;orthogonalLoop=1;jettySize=auto;html=1;" parent="Dba_KshNGZGqnBGReFBX-1" source="605iq-lV5Hz9d19N_AwI-5" edge="1">
          <mxGeometry relative="1" as="geometry">
            <mxPoint x="520" y="185" as="targetPoint" />
          </mxGeometry>
        </mxCell>
        <mxCell id="Dba_KshNGZGqnBGReFBX-15" style="edgeStyle=orthogonalEdgeStyle;rounded=0;orthogonalLoop=1;jettySize=auto;html=1;entryX=0;entryY=0.5;entryDx=0;entryDy=0;entryPerimeter=0;" parent="Dba_KshNGZGqnBGReFBX-1" source="Dba_KshNGZGqnBGReFBX-10" target="605iq-lV5Hz9d19N_AwI-3" edge="1">
          <mxGeometry relative="1" as="geometry">
            <mxPoint x="660" y="139" as="targetPoint" />
          </mxGeometry>
        </mxCell>
        <mxCell id="605iq-lV5Hz9d19N_AwI-7" style="edgeStyle=orthogonalEdgeStyle;rounded=0;orthogonalLoop=1;jettySize=auto;html=1;entryX=0;entryY=0.5;entryDx=0;entryDy=0;entryPerimeter=0;" edge="1" parent="Dba_KshNGZGqnBGReFBX-1" source="Dba_KshNGZGqnBGReFBX-10" target="605iq-lV5Hz9d19N_AwI-4">
          <mxGeometry relative="1" as="geometry" />
        </mxCell>
        <mxCell id="Dba_KshNGZGqnBGReFBX-10" value="Bus de Eventos" style="sketch=0;aspect=fixed;html=1;points=[];align=center;image;fontSize=12;image=img/lib/mscae/Event_Hubs.svg;" parent="Dba_KshNGZGqnBGReFBX-1" vertex="1">
          <mxGeometry x="516" y="240" width="48" height="50" as="geometry" />
        </mxCell>
        <mxCell id="Dba_KshNGZGqnBGReFBX-19" style="edgeStyle=orthogonalEdgeStyle;rounded=0;orthogonalLoop=1;jettySize=auto;html=1;entryX=0;entryY=0.5;entryDx=0;entryDy=0;entryPerimeter=0;fillColor=#dae8fc;strokeColor=#6c8ebf;strokeWidth=2;" parent="Dba_KshNGZGqnBGReFBX-1" source="Dba_KshNGZGqnBGReFBX-16" target="605iq-lV5Hz9d19N_AwI-5" edge="1">
          <mxGeometry relative="1" as="geometry" />
        </mxCell>
        <mxCell id="Dba_KshNGZGqnBGReFBX-16" value="Consulta Cuentas Acumulacion" style="sketch=0;aspect=fixed;html=1;points=[];align=center;image;fontSize=12;image=img/lib/mscae/App_Services.svg;" parent="Dba_KshNGZGqnBGReFBX-1" vertex="1">
          <mxGeometry x="90" y="270" width="50" height="50" as="geometry" />
        </mxCell>
        <mxCell id="605iq-lV5Hz9d19N_AwI-3" value="Cuentas de Control" style="sketch=0;points=[[0,0,0],[0.25,0,0],[0.5,0,0],[0.75,0,0],[1,0,0],[0,1,0],[0.25,1,0],[0.5,1,0],[0.75,1,0],[1,1,0],[0,0.25,0],[0,0.5,0],[0,0.75,0],[1,0.25,0],[1,0.5,0],[1,0.75,0]];outlineConnect=0;fontColor=#232F3E;gradientColor=#4D72F3;gradientDirection=north;fillColor=#3334B9;strokeColor=#ffffff;dashed=0;verticalLabelPosition=bottom;verticalAlign=top;align=center;html=1;fontSize=12;fontStyle=0;aspect=fixed;shape=mxgraph.aws4.resourceIcon;resIcon=mxgraph.aws4.documentdb_with_mongodb_compatibility;" vertex="1" parent="Dba_KshNGZGqnBGReFBX-1">
          <mxGeometry x="680" y="170" width="78" height="78" as="geometry" />
        </mxCell>
        <mxCell id="605iq-lV5Hz9d19N_AwI-4" value="Padrón de Pre-obligados" style="sketch=0;points=[[0,0,0],[0.25,0,0],[0.5,0,0],[0.75,0,0],[1,0,0],[0,1,0],[0.25,1,0],[0.5,1,0],[0.75,1,0],[1,1,0],[0,0.25,0],[0,0.5,0],[0,0.75,0],[1,0.25,0],[1,0.5,0],[1,0.75,0]];outlineConnect=0;fontColor=#232F3E;gradientColor=#4D72F3;gradientDirection=north;fillColor=#3334B9;strokeColor=#ffffff;dashed=0;verticalLabelPosition=bottom;verticalAlign=top;align=center;html=1;fontSize=12;fontStyle=0;aspect=fixed;shape=mxgraph.aws4.resourceIcon;resIcon=mxgraph.aws4.documentdb_with_mongodb_compatibility;" vertex="1" parent="Dba_KshNGZGqnBGReFBX-1">
          <mxGeometry x="680" y="341" width="78" height="78" as="geometry" />
        </mxCell>
        <mxCell id="605iq-lV5Hz9d19N_AwI-5" value="Cuentas de Acumulación&lt;br&gt;PN&lt;br&gt;PJ" style="sketch=0;points=[[0,0,0],[0.25,0,0],[0.5,0,0],[0.75,0,0],[1,0,0],[0,1,0],[0.25,1,0],[0.5,1,0],[0.75,1,0],[1,1,0],[0,0.25,0],[0,0.5,0],[0,0.75,0],[1,0.25,0],[1,0.5,0],[1,0.75,0]];outlineConnect=0;fontColor=#232F3E;gradientColor=#4D72F3;gradientDirection=north;fillColor=#3334B9;strokeColor=#ffffff;dashed=0;verticalLabelPosition=bottom;verticalAlign=top;align=center;html=1;fontSize=12;fontStyle=0;aspect=fixed;shape=mxgraph.aws4.resourceIcon;resIcon=mxgraph.aws4.documentdb_with_mongodb_compatibility;" vertex="1" parent="Dba_KshNGZGqnBGReFBX-1">
          <mxGeometry x="310" y="226" width="54" height="54" as="geometry" />
        </mxCell>
        <mxCell id="605iq-lV5Hz9d19N_AwI-6" value="" style="sketch=0;points=[[0,0,0],[0.25,0,0],[0.5,0,0],[0.75,0,0],[1,0,0],[0,1,0],[0.25,1,0],[0.5,1,0],[0.75,1,0],[1,1,0],[0,0.25,0],[0,0.5,0],[0,0.75,0],[1,0.25,0],[1,0.5,0],[1,0.75,0]];outlineConnect=0;fontColor=#232F3E;gradientColor=#4D72F3;gradientDirection=north;fillColor=#3334B9;strokeColor=#ffffff;dashed=0;verticalLabelPosition=bottom;verticalAlign=top;align=center;html=1;fontSize=12;fontStyle=0;aspect=fixed;shape=mxgraph.aws4.resourceIcon;resIcon=mxgraph.aws4.documentdb_with_mongodb_compatibility;" vertex="1" parent="Dba_KshNGZGqnBGReFBX-1">
          <mxGeometry x="360" y="570" width="78" height="78" as="geometry" />
        </mxCell>
        <mxCell id="605iq-lV5Hz9d19N_AwI-18" style="edgeStyle=orthogonalEdgeStyle;rounded=0;orthogonalLoop=1;jettySize=auto;html=1;strokeWidth=2;fillColor=#f8cecc;strokeColor=#b85450;" edge="1" parent="Dba_KshNGZGqnBGReFBX-1" source="605iq-lV5Hz9d19N_AwI-8" target="605iq-lV5Hz9d19N_AwI-15">
          <mxGeometry relative="1" as="geometry" />
        </mxCell>
        <mxCell id="605iq-lV5Hz9d19N_AwI-8" value="Plataforma Unica" style="sketch=0;aspect=fixed;html=1;points=[];align=center;image;fontSize=12;image=img/lib/mscae/App_Services.svg;" vertex="1" parent="Dba_KshNGZGqnBGReFBX-1">
          <mxGeometry x="50" y="105" width="50" height="50" as="geometry" />
        </mxCell>
        <mxCell id="605iq-lV5Hz9d19N_AwI-13" style="edgeStyle=orthogonalEdgeStyle;rounded=0;orthogonalLoop=1;jettySize=auto;html=1;fillColor=#f8cecc;strokeColor=#b85450;strokeWidth=2;" edge="1" parent="Dba_KshNGZGqnBGReFBX-1" source="605iq-lV5Hz9d19N_AwI-9" target="605iq-lV5Hz9d19N_AwI-5">
          <mxGeometry relative="1" as="geometry" />
        </mxCell>
        <mxCell id="605iq-lV5Hz9d19N_AwI-9" value="Bus de Eventos" style="sketch=0;aspect=fixed;html=1;points=[];align=center;image;fontSize=12;image=img/lib/mscae/Event_Hubs.svg;" vertex="1" parent="Dba_KshNGZGqnBGReFBX-1">
          <mxGeometry x="360" y="105" width="48" height="50" as="geometry" />
        </mxCell>
        <mxCell id="605iq-lV5Hz9d19N_AwI-12" value="Cuentas de Acumulación" style="sketch=0;points=[[0,0,0],[0.25,0,0],[0.5,0,0],[0.75,0,0],[1,0,0],[0,1,0],[0.25,1,0],[0.5,1,0],[0.75,1,0],[1,1,0],[0,0.25,0],[0,0.5,0],[0,0.75,0],[1,0.25,0],[1,0.5,0],[1,0.75,0]];outlineConnect=0;fontColor=#232F3E;gradientColor=#4D72F3;gradientDirection=north;fillColor=#3334B9;strokeColor=#ffffff;dashed=0;verticalLabelPosition=bottom;verticalAlign=top;align=center;html=1;fontSize=12;fontStyle=0;aspect=fixed;shape=mxgraph.aws4.resourceIcon;resIcon=mxgraph.aws4.documentdb_with_mongodb_compatibility;" vertex="1" parent="Dba_KshNGZGqnBGReFBX-1">
          <mxGeometry x="320" y="400" width="54" height="54" as="geometry" />
        </mxCell>
        <mxCell id="605iq-lV5Hz9d19N_AwI-17" style="edgeStyle=orthogonalEdgeStyle;rounded=0;orthogonalLoop=1;jettySize=auto;html=1;strokeWidth=2;fillColor=#f8cecc;strokeColor=#b85450;" edge="1" parent="Dba_KshNGZGqnBGReFBX-1" source="605iq-lV5Hz9d19N_AwI-15" target="605iq-lV5Hz9d19N_AwI-9">
          <mxGeometry relative="1" as="geometry" />
        </mxCell>
        <mxCell id="605iq-lV5Hz9d19N_AwI-15" value="Declaraciones y Pagos" style="sketch=0;points=[[0,0,0],[0.25,0,0],[0.5,0,0],[0.75,0,0],[1,0,0],[0,1,0],[0.25,1,0],[0.5,1,0],[0.75,1,0],[1,1,0],[0,0.25,0],[0,0.5,0],[0,0.75,0],[1,0.25,0],[1,0.5,0],[1,0.75,0]];outlineConnect=0;fontColor=#232F3E;gradientColor=#4D72F3;gradientDirection=north;fillColor=#3334B9;strokeColor=#ffffff;dashed=0;verticalLabelPosition=bottom;verticalAlign=top;align=center;html=1;fontSize=12;fontStyle=0;aspect=fixed;shape=mxgraph.aws4.resourceIcon;resIcon=mxgraph.aws4.database;" vertex="1" parent="Dba_KshNGZGqnBGReFBX-1">
          <mxGeometry x="193.5" y="100" width="60" height="60" as="geometry" />
        </mxCell>
        <mxCell id="Dba_KshNGZGqnBGReFBX-17" style="edgeStyle=orthogonalEdgeStyle;rounded=0;orthogonalLoop=1;jettySize=auto;html=1;entryX=0.02;entryY=0.5;entryDx=0;entryDy=0;entryPerimeter=0;fillColor=#dae8fc;strokeColor=#6c8ebf;strokeWidth=2;" parent="1" source="Dba_KshNGZGqnBGReFBX-4" target="Dba_KshNGZGqnBGReFBX-16" edge="1">
          <mxGeometry relative="1" as="geometry">
            <Array as="points">
              <mxPoint x="160" y="260" />
              <mxPoint x="160" y="285" />
              <mxPoint x="220" y="285" />
              <mxPoint x="220" y="365" />
            </Array>
          </mxGeometry>
        </mxCell>
        <mxCell id="605iq-lV5Hz9d19N_AwI-19" style="edgeStyle=orthogonalEdgeStyle;rounded=0;orthogonalLoop=1;jettySize=auto;html=1;strokeWidth=2;fillColor=#f8cecc;strokeColor=#b85450;" edge="1" parent="1" source="Dba_KshNGZGqnBGReFBX-4" target="605iq-lV5Hz9d19N_AwI-8">
          <mxGeometry relative="1" as="geometry">
            <Array as="points">
              <mxPoint x="160" y="259" />
              <mxPoint x="160" y="200" />
            </Array>
          </mxGeometry>
        </mxCell>
        <mxCell id="Dba_KshNGZGqnBGReFBX-4" value="Contribuyentes&lt;br&gt;PN/PJ" style="sketch=0;outlineConnect=0;fontColor=#232F3E;gradientColor=none;fillColor=#232F3D;strokeColor=none;dashed=0;verticalLabelPosition=bottom;verticalAlign=top;align=center;html=1;fontSize=12;fontStyle=0;aspect=fixed;pointerEvents=1;shape=mxgraph.aws4.users;" parent="1" vertex="1">
          <mxGeometry x="30" y="220" width="78" height="78" as="geometry" />
        </mxCell>
        <mxCell id="Dba_KshNGZGqnBGReFBX-18" style="edgeStyle=orthogonalEdgeStyle;rounded=0;orthogonalLoop=1;jettySize=auto;html=1;fillColor=#dae8fc;strokeColor=#6c8ebf;strokeWidth=2;" parent="1" source="Dba_KshNGZGqnBGReFBX-5" target="Dba_KshNGZGqnBGReFBX-16" edge="1">
          <mxGeometry relative="1" as="geometry" />
        </mxCell>
        <mxCell id="Dba_KshNGZGqnBGReFBX-5" value="Funcionarios" style="sketch=0;outlineConnect=0;fontColor=#232F3E;gradientColor=none;fillColor=#232F3D;strokeColor=none;dashed=0;verticalLabelPosition=bottom;verticalAlign=top;align=center;html=1;fontSize=12;fontStyle=0;aspect=fixed;pointerEvents=1;shape=mxgraph.aws4.users;" parent="1" vertex="1">
          <mxGeometry x="50" y="585" width="78" height="78" as="geometry" />
        </mxCell>
      </root>
    </mxGraphModel>
  </diagram>
</mxfile>
